<svg xmlns="http://www.w3.org/2000/svg" viewBox="0 0 500 500" fill="none">
    <path fill="#E3E3E3" d="M0 500L500 500L500 0L0 0L0 500Z">
    </path>
    <g>
        <path fill="#999999"
              d="M185.464 256.352C189.16 257.144 192.328 258.608 193.696 259.592C195.544 260.048 195.832 256.4 185.536 255.944L185.464 256.352ZM187.912 253.256C189.808 253.808 191.392 254.72 192.088 255.368C193.552 255.776 193.984 252.8 188.008 252.872L187.912 253.256ZM192.904 246.08C192.184 247.256 191.2 248.384 190.072 249.416C188.8 248.624 187.72 247.688 186.976 246.584C187.072 246.416 187.192 246.248 187.288 246.08L192.904 246.08ZM194.104 244.424L193.024 245.384L187.72 245.384C188.008 244.88 188.272 244.424 188.464 243.968C188.92 244.04 189.16 243.992 189.256 243.728L187.096 242.864C186.472 245.12 185.056 247.976 183.28 249.944L183.544 250.28C184.696 249.368 185.752 248.24 186.64 247.04C187.288 248.24 188.176 249.272 189.184 250.16C187.36 251.6 185.176 252.824 182.848 253.712L183.064 254.072C185.752 253.328 188.128 252.224 190.096 250.88C191.752 252.104 193.72 252.968 195.928 253.616C196.12 252.872 196.576 252.392 197.2 252.296L197.224 252.032C195.088 251.648 193.024 250.976 191.2 250.064C192.64 248.912 193.816 247.64 194.752 246.248C195.328 246.224 195.592 246.176 195.76 245.96L194.104 244.424ZM182.2 260.12L182.2 242.648L197.728 242.648L197.728 260.12L182.2 260.12ZM198.4 240.92L197.488 241.928L182.344 241.928L180.64 241.088L180.64 262.496L180.928 262.496C181.624 262.496 182.2 262.064 182.2 261.848L182.2 260.816L197.728 260.816L197.728 262.352L197.968 262.352C198.52 262.352 199.264 261.896 199.288 261.752L199.288 242.936C199.792 242.84 200.176 242.672 200.32 242.456L198.4 240.92ZM221.68 246.944L216.832 246.944L216.832 241.352C217.36 241.232 217.576 241.016 217.624 240.704L215.2 240.464L215.2 246.944L208.744 246.944L208.744 242.216C209.344 242.12 209.512 241.88 209.584 241.568L207.184 241.328L207.184 249.752C207.184 254.504 206.464 259.016 202.888 262.16L203.176 262.472C206.776 260.144 208.144 256.64 208.576 252.872L216.808 252.872L216.808 262.52L217.024 262.52C217.552 262.52 218.344 262.232 218.392 262.112L218.392 253.208C218.92 253.112 219.304 252.92 219.472 252.704L217.432 251.144L216.544 252.152L208.648 252.152C208.72 251.36 208.744 250.544 208.744 249.752L208.744 247.664L224.32 247.664C224.656 247.664 224.872 247.544 224.944 247.28C224.152 246.512 222.856 245.48 222.856 245.48L221.68 246.944ZM235.96 245.696L232.792 245.696C232.84 244.256 232.84 242.864 232.864 241.52C233.464 241.424 233.632 241.184 233.704 240.848L231.184 240.584C231.184 242.24 231.184 243.968 231.16 245.696L227.224 245.696L227.44 246.416L231.136 246.416C230.944 251.888 230.128 257.528 226.648 262.064L227.056 262.448C231.52 257.936 232.504 251.96 232.744 246.416L236.2 246.416C236.032 253.976 235.648 258.872 234.808 259.688C234.52 259.952 234.352 260.024 233.848 260.024C233.344 260.024 231.712 259.856 230.728 259.76L230.704 260.192C231.616 260.336 232.576 260.576 232.936 260.864C233.248 261.128 233.344 261.536 233.344 262.064C234.4 262.064 235.336 261.704 236.008 260.96C237.088 259.664 237.568 254.888 237.76 246.632C238.264 246.56 238.576 246.416 238.768 246.224L236.896 244.664L235.96 245.696ZM241.72 258.872L241.72 245.312L246.16 245.312L246.16 258.872L241.72 258.872ZM246.832 243.536L245.896 244.592L241.84 244.592L240.184 243.776L240.184 261.896L240.472 261.896C241.144 261.896 241.72 261.512 241.72 261.344L241.72 259.544L246.16 259.544L246.16 261.584L246.4 261.584C246.928 261.584 247.696 261.176 247.744 261.008L247.744 245.672C248.248 245.576 248.704 245.36 248.872 245.144L246.832 243.536ZM267.4 241.16C268.432 242 269.848 243.44 270.328 244.52C271.984 245.336 272.752 242.24 267.64 240.968L267.4 241.16ZM263.488 256.616C261.808 256.832 260.152 257.024 258.616 257.216L258.616 254.888L262.816 254.888C263.152 254.888 263.392 254.768 263.464 254.504C262.744 253.808 261.592 252.944 261.592 252.944L260.608 254.168L258.616 254.168L258.616 252.416C259.216 252.344 259.408 252.104 259.48 251.768L257.272 251.504L257.272 254.168L254.344 254.168C254.848 253.256 255.424 252.104 255.952 251.024L262.792 251.024C263.128 251.024 263.344 250.904 263.416 250.64C262.648 249.944 261.496 249.056 261.496 249.056L260.464 250.304L256.288 250.304C256.552 249.728 256.792 249.224 256.96 248.768C257.536 248.864 257.824 248.672 257.92 248.384L255.856 247.616C255.592 248.288 255.184 249.296 254.704 250.304L251.368 250.304L251.56 251.024L254.368 251.024C253.912 252.056 253.384 253.112 252.952 253.88C252.616 253.976 252.28 254.144 252.088 254.288L253.504 255.512L254.176 254.888L257.176 254.888L257.176 257.384C254.608 257.648 252.472 257.888 251.272 257.96L252.184 260.072C252.4 260.024 252.64 259.832 252.736 259.544C254.368 259.208 255.856 258.896 257.176 258.584L257.176 262.496L257.392 262.496C258.136 262.496 258.616 262.16 258.616 262.04L258.616 258.248C260.584 257.768 262.216 257.384 263.584 257.024L263.488 256.616ZM272.896 257.192L272.584 257.168C272.32 258.128 271.936 259.304 271.672 259.88C271.48 260.336 271.336 260.36 270.928 260.048C269.776 259.352 268.888 258.296 268.192 257.024C269.872 254.936 271.024 252.608 271.792 250.304C272.416 250.328 272.632 250.208 272.752 249.92L270.352 249.104C269.824 251.36 268.912 253.616 267.592 255.68C266.704 253.448 266.272 250.616 266.08 247.52L272.416 247.52C272.728 247.52 272.944 247.4 273.016 247.136C272.248 246.368 270.976 245.384 270.976 245.384L269.872 246.8L266.056 246.8C265.984 245.144 265.96 243.44 265.984 241.688C266.536 241.64 266.776 241.376 266.824 241.088L264.448 240.632C264.448 242.792 264.496 244.856 264.616 246.8L257.92 246.8L257.92 244.28L262.36 244.28C262.696 244.28 262.912 244.16 262.984 243.896C262.288 243.176 261.136 242.264 261.136 242.264L260.128 243.56L257.92 243.56L257.92 241.472C258.544 241.352 258.784 241.112 258.832 240.776L256.456 240.536L256.456 243.56L252.016 243.56L252.208 244.28L256.456 244.28L256.456 246.8L250.888 246.8L251.104 247.52L264.664 247.52C264.928 251.264 265.48 254.504 266.632 257.072C265.12 259.088 263.152 260.84 260.704 262.112L260.944 262.448C263.512 261.368 265.552 259.88 267.184 258.176C267.976 259.544 268.984 260.696 270.256 261.512C271.312 262.256 272.632 262.808 273.112 262.088C273.304 261.824 273.232 261.512 272.56 260.744L272.896 257.192ZM296.44 252.08C296.776 252.08 296.992 251.96 297.064 251.696C296.224 250.928 294.856 249.872 294.856 249.872L293.608 251.384L286.48 251.384C286.744 249.824 286.864 248.096 286.912 246.248L294.256 246.248C294.592 246.248 294.832 246.128 294.88 245.864C294.04 245.12 292.672 244.064 292.672 244.064L291.448 245.576L286.912 245.576C286.936 244.304 286.936 242.984 286.96 241.568C287.536 241.472 287.752 241.232 287.824 240.896L285.28 240.608C285.28 242.384 285.304 244.04 285.28 245.576L280.312 245.576C280.816 244.544 281.224 243.44 281.584 242.264C282.112 242.264 282.376 242.048 282.472 241.736L279.976 241.112C279.352 244.712 277.96 248.048 276.328 250.232L276.688 250.472C277.96 249.416 279.064 247.976 279.976 246.248L285.28 246.248C285.232 248.12 285.136 249.824 284.848 251.384L275.248 251.384L275.464 252.08L284.704 252.08C283.768 256.424 281.32 259.616 274.936 262.016L275.176 262.472C282.64 260.144 285.352 256.76 286.336 252.08L286.624 252.08C287.416 255.608 289.36 259.856 295.6 262.496C295.768 261.584 296.344 261.32 297.184 261.2L297.256 260.888C290.656 258.632 288.064 255.248 287.104 252.08L296.44 252.08ZM301.6 243.2L307.192 243.2L307.192 255.704L307.432 255.704C308.056 255.704 308.632 255.392 308.632 255.248L308.632 243.416C309.136 243.344 309.424 243.176 309.592 243.008L307.888 241.64L307.12 242.576L301.888 242.576L300.208 241.832L300.208 255.992L300.424 255.992C301.144 255.992 301.6 255.632 301.6 255.512L301.6 243.2ZM303.832 245.144C303.784 253.88 303.808 258.584 298.888 262.112L299.224 262.544C305.152 259.232 305.08 254.264 305.248 246.272C305.8 246.272 306.064 246.032 306.136 245.744L303.832 245.144ZM304.72 255.752C305.8 256.88 307.144 258.752 307.408 260.24C309.064 261.464 310.336 257.792 304.984 255.584L304.72 255.752ZM317.008 246.584C316.624 249.752 315.832 252.632 314.464 255.152C313.12 253.04 312.232 250.568 311.632 247.856C311.824 247.448 311.968 247.016 312.112 246.584L317.008 246.584ZM320.416 246.584C320.752 246.584 320.992 246.464 321.064 246.2C320.272 245.456 319 244.472 319 244.472L317.872 245.888L312.352 245.888C312.832 244.544 313.216 243.08 313.528 241.592C314.056 241.592 314.296 241.352 314.368 241.064L311.8 240.512C311.344 244.616 310.264 248.888 308.944 251.792L309.328 251.984C310.024 251.048 310.672 249.92 311.248 248.72C311.776 251.528 312.544 254.072 313.768 256.328C312.256 258.608 310.168 260.6 307.36 262.232L307.6 262.544C310.552 261.224 312.784 259.52 314.464 257.504C315.76 259.472 317.44 261.152 319.672 262.424C319.888 261.704 320.44 261.344 321.16 261.224L321.232 260.984C318.712 259.856 316.792 258.296 315.328 256.376C317.224 253.64 318.232 250.376 318.784 246.584L320.416 246.584Z">
        </path>
    </g>
</svg>
